<?xml version="1.0" encoding="UTF-8" standalone="no"?>
<!DOCTYPE svg PUBLIC "-//W3C//DTD SVG 1.1//EN" "http://www.w3.org/Graphics/SVG/1.1/DTD/svg11.dtd">
<svg width="88px" height="31px" version="1.1" xmlns="http://www.w3.org/2000/svg" xmlns:xlink="http://www.w3.org/1999/xlink" xml:space="preserve" xmlns:serif="http://www.serif.com/" style="fill-rule:evenodd;clip-rule:evenodd;stroke-linejoin:round;stroke-miterlimit:2;">
	<g>
		<path d="M2.386,0.481L85.513,0.63C86.675,0.63 87.712,0.457 87.712,2.963L87.608,30.519L0.289,30.519L0.289,2.861C0.288,1.625 0.406,0.481 2.386,0.481Z" style="fill:white;fill-rule:nonzero;"/>
		<path d="M23.771,4.427C27.255,7.02 29.525,11.172 29.526,15.868C29.525,20.139 27.646,23.962 24.684,26.572L87.537,26.572L87.537,4.427L23.771,4.427Z" style="fill-rule:nonzero;"/>
		<g>
			<path d="M36.239,7.914C36.631,7.914 36.967,7.973 37.241,8.087C37.517,8.203 37.741,8.355 37.915,8.543C38.088,8.732 38.214,8.948 38.294,9.19C38.373,9.432 38.412,9.684 38.412,9.943C38.412,10.196 38.373,10.446 38.294,10.692C38.214,10.936 38.088,11.154 37.915,11.342C37.741,11.531 37.518,11.683 37.241,11.798C36.967,11.912 36.631,11.971 36.239,11.971L34.787,11.971L34.787,14.238L33.405,14.238L33.405,7.914L36.239,7.914ZM35.86,10.89C36.018,10.89 36.172,10.878 36.317,10.855C36.464,10.832 36.593,10.786 36.705,10.718C36.817,10.65 36.906,10.554 36.974,10.43C37.042,10.306 37.075,10.143 37.075,9.943C37.075,9.743 37.042,9.581 36.974,9.456C36.907,9.332 36.817,9.235 36.705,9.169C36.594,9.101 36.465,9.055 36.317,9.031C36.171,9.007 36.018,8.995 35.86,8.995L34.787,8.995L34.787,10.891L35.86,10.89Z" style="fill:white;fill-rule:nonzero;"/>
			<path d="M44.251,13.755C43.775,14.172 43.118,14.38 42.279,14.38C41.428,14.38 40.77,14.173 40.303,13.76C39.837,13.348 39.604,12.708 39.604,11.847L39.604,7.914L40.985,7.914L40.985,11.848C40.985,12.019 41.001,12.186 41.03,12.353C41.059,12.518 41.121,12.664 41.215,12.792C41.309,12.918 41.44,13.021 41.607,13.101C41.774,13.182 41.999,13.221 42.28,13.221C42.773,13.221 43.113,13.111 43.301,12.889C43.489,12.667 43.583,12.321 43.583,11.849L43.583,7.914L44.965,7.914L44.965,11.848C44.964,12.703 44.727,13.338 44.251,13.755Z" style="fill:white;fill-rule:nonzero;"/>
			<path d="M49.57,7.914C49.87,7.914 50.142,7.941 50.388,7.995C50.632,8.049 50.845,8.135 51.021,8.256C51.198,8.377 51.333,8.538 51.431,8.738C51.527,8.939 51.577,9.188 51.577,9.483C51.577,9.801 51.505,10.067 51.361,10.279C51.215,10.491 51.004,10.667 50.722,10.802C51.109,10.914 51.398,11.112 51.587,11.391C51.776,11.672 51.873,12.011 51.873,12.406C51.873,12.725 51.811,13.001 51.686,13.234C51.563,13.466 51.397,13.657 51.19,13.805C50.981,13.953 50.745,14.062 50.477,14.132C50.208,14.202 49.936,14.237 49.655,14.237L46.608,14.237L46.608,7.914L49.57,7.914ZM49.395,10.474C49.641,10.474 49.843,10.415 50.002,10.296C50.16,10.178 50.238,9.987 50.238,9.72C50.238,9.573 50.213,9.451 50.16,9.357C50.107,9.264 50.037,9.189 49.949,9.136C49.859,9.083 49.76,9.045 49.644,9.027C49.529,9.005 49.412,8.995 49.289,8.995L47.995,8.995L47.995,10.475L49.395,10.474ZM49.475,13.159C49.61,13.159 49.739,13.145 49.862,13.119C49.985,13.093 50.092,13.047 50.188,12.986C50.28,12.924 50.356,12.839 50.414,12.732C50.47,12.628 50.497,12.491 50.497,12.326C50.497,12.002 50.405,11.769 50.226,11.631C50.044,11.493 49.802,11.423 49.503,11.423L47.998,11.423L47.998,13.161L49.477,13.161L49.477,13.159L49.475,13.159Z" style="fill:white;fill-rule:nonzero;"/>
			<path d="M54.643,7.914L54.643,13.07L57.705,13.07L57.705,14.238L53.26,14.238L53.26,7.914L54.643,7.914Z" style="fill:white;fill-rule:nonzero;"/>
			<rect x="58.866" y="7.914" width="1.382" height="6.324" style="fill:white;fill-rule:nonzero;"/>
			<path d="M65.951,9.602C65.869,9.47 65.765,9.353 65.642,9.253C65.519,9.151 65.379,9.073 65.224,9.017C65.068,8.96 64.908,8.933 64.736,8.933C64.424,8.933 64.162,8.995 63.943,9.116C63.726,9.236 63.549,9.399 63.418,9.602C63.282,9.806 63.186,10.038 63.122,10.297C63.06,10.556 63.029,10.825 63.029,11.103C63.029,11.37 63.06,11.627 63.122,11.879C63.184,12.13 63.282,12.356 63.418,12.557C63.552,12.758 63.73,12.918 63.943,13.04C64.162,13.16 64.424,13.221 64.736,13.221C65.16,13.221 65.488,13.091 65.726,12.832C65.962,12.572 66.109,12.23 66.163,11.804L67.5,11.804C67.466,12.2 67.374,12.557 67.229,12.876C67.083,13.194 66.887,13.467 66.647,13.691C66.409,13.916 66.126,14.087 65.802,14.204C65.479,14.323 65.124,14.382 64.737,14.382C64.258,14.382 63.823,14.298 63.44,14.13C63.055,13.961 62.731,13.732 62.467,13.435C62.202,13.14 61.999,12.793 61.86,12.395C61.718,11.996 61.649,11.566 61.649,11.106C61.649,10.633 61.718,10.195 61.86,9.79C62.001,9.386 62.204,9.032 62.467,8.731C62.731,8.429 63.055,8.195 63.44,8.023C63.824,7.851 64.255,7.765 64.737,7.765C65.085,7.765 65.413,7.816 65.718,7.915C66.026,8.017 66.301,8.163 66.545,8.355C66.788,8.546 66.988,8.785 67.149,9.067C67.307,9.35 67.408,9.675 67.45,10.042L66.11,10.042C66.086,9.879 66.033,9.732 65.951,9.602Z" style="fill:white;fill-rule:nonzero;"/>
			<path d="M36.115,16.773C36.52,16.773 36.897,16.835 37.246,16.965C37.596,17.095 37.897,17.289 38.152,17.55C38.407,17.81 38.607,18.136 38.751,18.525C38.895,18.916 38.967,19.374 38.967,19.896C38.967,20.359 38.908,20.784 38.791,21.173C38.673,21.564 38.496,21.9 38.259,22.185C38.021,22.466 37.725,22.689 37.369,22.853C37.015,23.013 36.597,23.095 36.115,23.095L33.405,23.095L33.405,16.773L36.115,16.773ZM36.019,21.927C36.218,21.927 36.412,21.896 36.6,21.829C36.788,21.767 36.954,21.656 37.102,21.506C37.248,21.355 37.366,21.159 37.454,20.916C37.542,20.675 37.586,20.38 37.586,20.03C37.586,19.713 37.555,19.424 37.493,19.167C37.431,18.911 37.331,18.688 37.189,18.508C37.048,18.325 36.863,18.185 36.63,18.087C36.399,17.989 36.113,17.941 35.772,17.941L34.788,17.941L34.788,21.927L36.019,21.927Z" style="fill:white;fill-rule:nonzero;"/>
			<path d="M40.3,18.644C40.441,18.241 40.644,17.888 40.906,17.585C41.171,17.282 41.495,17.047 41.879,16.876C42.264,16.705 42.695,16.619 43.177,16.619C43.664,16.619 44.098,16.705 44.48,16.876C44.861,17.047 45.184,17.282 45.449,17.585C45.713,17.888 45.915,18.237 46.054,18.644C46.197,19.048 46.267,19.489 46.267,19.96C46.267,20.42 46.197,20.851 46.054,21.248C45.912,21.645 45.71,21.992 45.449,22.288C45.183,22.583 44.861,22.813 44.48,22.983C44.098,23.149 43.665,23.235 43.177,23.235C42.696,23.235 42.264,23.149 41.879,22.983C41.495,22.813 41.171,22.583 40.906,22.288C40.643,21.992 40.44,21.643 40.3,21.248C40.16,20.851 40.089,20.42 40.089,19.96C40.089,19.489 40.159,19.049 40.3,18.644ZM41.562,20.734C41.624,20.986 41.722,21.213 41.857,21.414C41.992,21.614 42.169,21.773 42.384,21.896C42.602,22.017 42.865,22.079 43.176,22.079C43.488,22.079 43.752,22.017 43.968,21.896C44.186,21.775 44.362,21.615 44.497,21.414C44.631,21.214 44.728,20.986 44.792,20.734C44.854,20.484 44.884,20.226 44.884,19.96C44.884,19.684 44.854,19.413 44.792,19.154C44.73,18.892 44.631,18.662 44.497,18.458C44.361,18.257 44.185,18.093 43.968,17.973C43.752,17.852 43.488,17.789 43.176,17.789C42.865,17.789 42.602,17.851 42.384,17.973C42.168,18.093 41.991,18.257 41.857,18.458C41.722,18.662 41.624,18.895 41.562,19.154C41.5,19.413 41.469,19.681 41.469,19.96C41.47,20.226 41.501,20.484 41.562,20.734Z" style="fill:white;fill-rule:nonzero;"/>
			<path d="M49.592,16.773L51.063,21.121L51.083,21.121L52.476,16.773L54.418,16.773L54.418,23.095L53.124,23.095L53.124,18.615L53.104,18.615L51.565,23.095L50.5,23.095L48.96,18.658L48.941,18.658L48.941,23.095L47.648,23.095L47.648,16.773L49.592,16.773Z" style="fill:white;fill-rule:nonzero;"/>
			<path d="M59.264,16.773L61.614,23.095L60.18,23.095L59.704,21.687L57.353,21.687L56.861,23.095L55.47,23.095L57.847,16.773L59.264,16.773ZM59.344,20.652L58.551,18.33L58.533,18.33L57.716,20.652L59.344,20.652Z" style="fill:white;fill-rule:nonzero;"/>
			<rect x="62.665" y="16.773" width="1.382" height="6.322" style="fill:white;fill-rule:nonzero;"/>
			<path d="M67.104,16.773L69.727,21.015L69.745,21.015L69.745,16.773L71.039,16.773L71.039,23.095L69.655,23.095L67.044,18.861L67.024,18.861L67.024,23.095L65.73,23.095L65.73,16.773L67.104,16.773Z" style="fill:white;fill-rule:nonzero;"/>
		</g>
		<g>
			<path id="text2809_4_" d="M14.72,8.722C10.858,8.722 9.886,12.391 9.886,15.501C9.886,18.612 10.857,22.28 14.72,22.28C18.583,22.28 19.554,18.609 19.554,15.501C19.554,12.39 18.583,8.722 14.72,8.722ZM14.72,11.277C14.877,11.277 15.02,11.301 15.155,11.337C15.433,11.577 15.569,11.91 15.302,12.375L12.73,17.134C12.651,16.531 12.639,15.939 12.639,15.5C12.639,14.131 12.733,11.277 14.72,11.277ZM16.646,13.47C16.783,14.201 16.801,14.963 16.801,15.499C16.801,16.869 16.707,19.722 14.721,19.722C14.565,19.722 14.42,19.706 14.286,19.673C14.261,19.664 14.237,19.655 14.212,19.648C14.172,19.636 14.128,19.624 14.09,19.608C13.648,19.42 13.369,19.077 13.771,18.469L16.646,13.47Z" style="fill-rule:nonzero;"/>
			<path id="path2815_4_" d="M14.695,3.723C11.45,3.723 8.715,4.86 6.485,7.145C5.357,8.281 4.495,9.577 3.896,11.022C3.311,12.451 3.02,13.942 3.02,15.499C3.02,17.069 3.311,18.561 3.896,19.978C4.481,21.395 5.33,22.669 6.444,23.804C7.572,24.926 8.839,25.789 10.246,26.392C11.667,26.983 13.149,27.276 14.695,27.276C16.242,27.276 17.745,26.973 19.194,26.37C20.642,25.766 21.934,24.898 23.077,23.764C24.178,22.687 25.011,21.447 25.567,20.045C26.138,18.63 26.42,17.114 26.42,15.502C26.42,13.903 26.139,12.39 25.568,10.974C24.997,9.545 24.161,8.281 23.061,7.173C20.763,4.87 17.969,3.723 14.695,3.723ZM14.744,5.842C17.39,5.842 19.648,6.786 21.528,8.679C22.434,9.591 23.128,10.633 23.601,11.798C24.074,12.961 24.314,14.195 24.314,15.5C24.314,18.207 23.394,20.452 21.57,22.246C20.622,23.173 19.558,23.884 18.374,24.374C17.204,24.864 15.999,25.106 14.744,25.106C13.476,25.106 12.263,24.868 11.106,24.389C9.95,23.901 8.913,23.199 7.993,22.286C7.073,21.361 6.364,20.316 5.863,19.151C5.376,17.973 5.125,16.76 5.125,15.498C5.125,14.222 5.376,13.001 5.863,11.836C6.364,10.658 7.074,9.601 7.993,8.661C9.817,6.784 12.07,5.842 14.744,5.842Z" style="fill-rule:nonzero;"/>
		</g>
		<path d="M86.352,0L1.647,0C0.739,0 0,0.744 0,1.658L0,30.627C0,30.834 0.167,31 0.372,31L87.628,31C87.833,31 88,30.834 88,30.627L88,1.658C88,0.744 87.262,0 86.352,0ZM1.647,0.75L86.352,0.75C86.85,0.75 87.254,1.156 87.254,1.658L87.254,30.215L0.745,30.215L0.745,1.658C0.745,1.157 1.15,0.75 1.647,0.75Z" style="fill-rule:nonzero;"/>
	</g>
</svg>